<?xml version="1.0" encoding="UTF-8"?>
<svg version="1.1" xmlns="http://www.w3.org/2000/svg" width="1583" height="147">
<path d="M0 0 C0 0.66 0 1.32 0 2 C1.99330842 3.34331654 3.99384866 4.67594012 6 6 C9.281798 10.922697 9.17954815 15.60760901 9.25 21.4375 C9.27578125 22.71496094 9.3015625 23.99242188 9.328125 25.30859375 C8.74053416 31.91899065 5.78099125 35.60665669 1 40 C1.94875 40.721875 2.8975 41.44375 3.875 42.1875 C6.84827788 44.44977665 7.97964179 46.39247763 9 50 C9.30379002 53.15034676 9.32467527 56.2743652 9.3125 59.4375 C9.32861328 60.27087891 9.34472656 61.10425781 9.36132812 61.96289062 C9.36536313 67.067167 8.82425261 70.58031622 6 75 C0.71261128 80.14448632 -4.70675151 81.25387825 -11.92333984 81.22705078 C-12.59809168 81.22729185 -13.27284351 81.22753292 -13.96804237 81.2277813 C-16.1324792 81.22629936 -18.29656304 81.21111886 -20.4609375 81.1953125 C-21.80509272 81.19236858 -23.14925023 81.19033029 -24.4934082 81.18920898 C-29.45397397 81.17876212 -34.41449053 81.15083956 -39.375 81.125 C-50.47125 81.08375 -61.5675 81.0425 -73 81 C-73 54.6 -73 28.2 -73 1 C-61.883125 0.835 -50.76625 0.67 -39.3125 0.5 C-35.80794189 0.44779297 -32.30338379 0.39558594 -28.69262695 0.34179688 C-24.39880371 0.27832031 -24.39880371 0.27832031 -22.38591003 0.24865723 C-20.98612775 0.2279596 -19.5863476 0.20711666 -18.18656921 0.18615723 C-16.06098924 0.15435871 -13.93540283 0.1230276 -11.80981445 0.09179688 C-10.61290482 0.07403198 -9.41599518 0.05626709 -8.18281555 0.03796387 C-5.45474787 0.00542412 -2.72820895 -0.00754564 0 0 Z M-58 13 C-58 19.6 -58 26.2 -58 33 C-57.34 32.34 -56.68 31.68 -56 31 C-53.89926147 30.75949097 -53.89926147 30.75949097 -51.27490234 30.77294922 C-50.29403656 30.77310028 -49.31317078 30.77325134 -48.30258179 30.77340698 C-47.24108917 30.78372955 -46.17959656 30.79405212 -45.0859375 30.8046875 C-43.45877304 30.80893234 -43.45877304 30.80893234 -41.79873657 30.81326294 C-38.32404687 30.82448422 -34.84961218 30.84959238 -31.375 30.875 C-29.02344121 30.88502728 -26.6718784 30.89415357 -24.3203125 30.90234375 C-18.54678756 30.92442989 -12.77341199 30.95792655 -7 31 C-5.64449615 28.2889923 -5.83082793 26.08660831 -5.8125 23.0625 C-5.79832031 22.00160156 -5.78414062 20.94070312 -5.76953125 19.84765625 C-5.78434933 16.79722331 -5.78434933 16.79722331 -8 14 C-10.87962834 13.04012389 -12.66627441 12.87846186 -15.6550293 12.88647461 C-16.59577805 12.88655014 -17.53652679 12.88662567 -18.50578308 12.88670349 C-20.02465874 12.89444542 -20.02465874 12.89444542 -21.57421875 12.90234375 C-22.61318802 12.9037587 -23.65215729 12.90517365 -24.72261047 12.90663147 C-28.04426948 12.91223344 -31.36586133 12.92478628 -34.6875 12.9375 C-36.93815007 12.94251475 -39.18880119 12.9470777 -41.43945312 12.95117188 C-46.95966133 12.96220352 -52.47981928 12.97946949 -58 13 Z M-56 32 C-56 32.33 -56 32.66 -56 33 C-40.49 33 -24.98 33 -9 33 C-9 32.67 -9 32.34 -9 32 C-24.51 32 -40.02 32 -56 32 Z M-58 45 C-58 52.92 -58 60.84 -58 69 C-42.49 69 -26.98 69 -11 69 C-11 68.67 -11 68.34 -11 68 C-26.18 68 -41.36 68 -57 68 C-56 67 -56 67 -54.14686584 66.88647461 C-52.93346779 66.89432983 -52.93346779 66.89432983 -51.69555664 66.90234375 C-50.78113297 66.90564697 -49.86670929 66.9089502 -48.92457581 66.91235352 C-47.92981735 66.92065186 -46.9350589 66.9289502 -45.91015625 66.9375 C-44.38786659 66.94317993 -44.38786659 66.94317993 -42.83482361 66.94897461 C-38.47292278 66.96540117 -34.11111372 66.99350943 -29.74926758 67.02050781 C-26.57373482 67.03852233 -23.39821705 67.05066258 -20.22265625 67.0625 C-19.22992203 67.07079834 -18.23718781 67.07909668 -17.21437073 67.08764648 C-16.29679489 67.09094971 -15.37921906 67.09425293 -14.43383789 67.09765625 C-13.21924644 67.10551147 -13.21924644 67.10551147 -11.9801178 67.11352539 C-9.92359627 67.12650005 -9.92359627 67.12650005 -8 66 C-7.67 59.73 -7.34 53.46 -7 47 C-10.74040167 45.12979916 -11.85541693 44.75191084 -15.76855469 44.77294922 C-17.17956451 44.77317581 -17.17956451 44.77317581 -18.61907959 44.77340698 C-19.62650208 44.78372955 -20.63392456 44.79405212 -21.671875 44.8046875 C-23.22820648 44.80893234 -23.22820648 44.80893234 -24.815979 44.81326294 C-28.12743701 44.82445135 -31.43862384 44.84955373 -34.75 44.875 C-36.99608984 44.88503152 -39.24218393 44.89415707 -41.48828125 44.90234375 C-46.99237585 44.92268408 -52.49588462 44.96183587 -58 45 Z M-7 48 C-7 53.61 -7 59.22 -7 65 C-6.67 65 -6.34 65 -6 65 C-6 59.39 -6 53.78 -6 48 C-6.33 48 -6.66 48 -7 48 Z " fill="#000000" transform="translate(1264,32)"/>
<path d="M0 0 C1.11256416 0.01441132 1.11256416 0.01441132 2.24760437 0.02911377 C4.69877659 0.0620901 7.14976981 0.10242759 9.60083008 0.14282227 C11.30047474 0.16712472 13.00012603 0.19096822 14.69978333 0.21437073 C19.17312155 0.27719919 23.64634256 0.34626937 28.11956787 0.41662598 C32.68423119 0.48732058 37.2489776 0.55213081 41.8137207 0.61743164 C50.77019223 0.74642803 59.72655099 0.88201647 68.68286133 1.02172852 C68.68286133 1.68172852 68.68286133 2.34172852 68.68286133 3.02172852 C69.85848633 3.85704102 69.85848633 3.85704102 71.05786133 4.70922852 C74.92519021 8.1161611 75.51844788 11.7109993 75.87197876 16.67965698 C75.96387885 19.86704578 75.98623751 23.04785656 75.98364258 26.23657227 C75.9879277 27.40628067 75.99221283 28.57598907 75.99662781 29.78114319 C76.00235541 32.2479691 76.00288298 34.7148119 75.99853516 37.18164062 C75.99537489 40.94308432 76.01885638 44.70374127 76.04418945 48.46508789 C76.04646265 50.8680817 76.04716585 53.2710776 76.04614258 55.67407227 C76.05535233 56.79200668 76.06456207 57.9099411 76.0740509 59.06175232 C76.03064437 66.43409076 75.72698531 72.97760454 70.24536133 78.45922852 C65.84999129 81.13933219 62.09754533 81.15075178 56.98999023 81.16699219 C55.99407616 81.17203011 55.99407616 81.17203011 54.9780426 81.1771698 C52.78848385 81.18664957 50.59900181 81.18862143 48.40942383 81.18969727 C46.88251718 81.19291199 45.35561084 81.19627623 43.82870483 81.19978333 C40.62936692 81.20576721 37.430056 81.20762399 34.23071289 81.20703125 C30.13968678 81.20692969 26.04883445 81.22057902 21.9578495 81.23780346 C18.80420137 81.24894539 15.65059496 81.25094978 12.49692917 81.25042152 C10.98911312 81.25159844 9.48129589 81.256004 7.9734993 81.26375389 C5.86038439 81.27359793 3.74764295 81.27065855 1.63452148 81.26464844 C0.43413239 81.26607346 -0.76625671 81.26749847 -2.00302124 81.26896667 C-5.40967678 81.01482503 -8.13875087 80.24180493 -11.31713867 79.02172852 C-11.31713867 78.36172852 -11.31713867 77.70172852 -11.31713867 77.02172852 C-11.97713867 77.02172852 -12.63713867 77.02172852 -13.31713867 77.02172852 C-13.97713867 76.36172852 -14.63713867 75.70172852 -15.31713867 75.02172852 C-15.97713867 74.69172852 -16.63713867 74.36172852 -17.31713867 74.02172852 C-19.5237044 67.29046612 -19.60161998 60.23915073 -19.54760742 53.22875977 C-19.5471492 52.23849289 -19.54669098 51.24822601 -19.54621887 50.22795105 C-19.54321922 48.15146676 -19.53540241 46.07498427 -19.52294922 43.99853516 C-19.50462784 40.83235655 -19.50244043 37.66647041 -19.50268555 34.50024414 C-19.49777141 32.47224684 -19.49194355 30.4442515 -19.48510742 28.41625977 C-19.4839946 27.47756546 -19.48288177 26.53887115 -19.48173523 25.57173157 C-19.44615242 20.61819437 -19.15587775 15.90565809 -18.31713867 11.02172852 C-17.65713867 11.02172852 -16.99713867 11.02172852 -16.31713867 11.02172852 C-16.19338867 10.05235352 -16.06963867 9.08297852 -15.94213867 8.08422852 C-15.73588867 7.07360352 -15.52963867 6.06297852 -15.31713867 5.02172852 C-14.65713867 4.69172852 -13.99713867 4.36172852 -13.31713867 4.02172852 C-12.84276367 3.52672852 -12.36838867 3.03172852 -11.87963867 2.52172852 C-8.50935559 -0.71374325 -4.35078814 -0.08047972 0 0 Z M-7.31713867 1.02172852 C-3.31713867 2.02172852 -3.31713867 2.02172852 -3.31713867 2.02172852 Z M-2.31713867 13.02172852 C-2.31713867 31.50172852 -2.31713867 49.98172852 -2.31713867 69.02172852 C18.47286133 69.02172852 39.26286133 69.02172852 60.68286133 69.02172852 C60.68286133 68.69172852 60.68286133 68.36172852 60.68286133 68.02172852 C40.22286133 68.02172852 19.76286133 68.02172852 -1.31713867 68.02172852 C-1.31713867 49.87172852 -1.31713867 31.72172852 -1.31713867 13.02172852 C-1.64713867 13.02172852 -1.97713867 13.02172852 -2.31713867 13.02172852 Z M-0.31713867 13.02172852 C-0.31713867 30.84172852 -0.31713867 48.66172852 -0.31713867 67.02172852 C19.81286133 67.02172852 39.94286133 67.02172852 60.68286133 67.02172852 C60.68286133 49.20172852 60.68286133 31.38172852 60.68286133 13.02172852 C40.55286133 13.02172852 20.42286133 13.02172852 -0.31713867 13.02172852 Z M-18.31713867 19.02172852 C-18.31713867 33.54172852 -18.31713867 48.06172852 -18.31713867 63.02172852 C-17.98713867 63.02172852 -17.65713867 63.02172852 -17.31713867 63.02172852 C-17.31713867 48.50172852 -17.31713867 33.98172852 -17.31713867 19.02172852 C-17.64713867 19.02172852 -17.97713867 19.02172852 -18.31713867 19.02172852 Z M-17.31713867 63.02172852 C-17.31713867 65.66172852 -17.31713867 68.30172852 -17.31713867 71.02172852 C-16.98713867 71.02172852 -16.65713867 71.02172852 -16.31713867 71.02172852 C-16.31713867 68.38172852 -16.31713867 65.74172852 -16.31713867 63.02172852 C-16.64713867 63.02172852 -16.97713867 63.02172852 -17.31713867 63.02172852 Z M-16.31713867 71.02172852 C-15.31713867 73.02172852 -15.31713867 73.02172852 -15.31713867 73.02172852 Z " fill="#000000" transform="translate(982.317138671875,31.978271484375)"/>
<path d="M0 0 C0 0.66 0 1.32 0 2 C0.804375 2.12375 1.60875 2.2475 2.4375 2.375 C3.7059375 2.684375 3.7059375 2.684375 5 3 C6 5 6 5 7 8 C7.99 9.485 7.99 9.485 9 11 C9.33 11 9.66 11 10 11 C10.04938628 15.23582327 10.08571263 19.47149465 10.10986328 23.70751953 C10.11992963 25.14895547 10.1335838 26.59037095 10.15087891 28.03173828 C10.17510012 30.10193934 10.18647641 32.17187076 10.1953125 34.2421875 C10.20578613 35.4885498 10.21625977 36.73491211 10.22705078 38.01904297 C10 41 10 41 8 43 C7.319375 43.804375 6.63875 44.60875 5.9375 45.4375 C-0.05147772 50.66192737 -7.29884709 51.38879739 -15 52 C-12.94766315 54.2477975 -11.99332739 55.0022242 -9 56 C-8.690625 56.639375 -8.38125 57.27875 -8.0625 57.9375 C-6.72412624 60.53551965 -5.59213934 60.74096089 -3 62 C-1.31337542 63.64646685 0.35511706 65.31183067 2 67 C2.66 67.33 3.32 67.66 4 68 C5.66666667 69.66666667 7.33333333 71.33333333 9 73 C9.66 73.33 10.32 73.66 11 74 C13.125 75.875 13.125 75.875 15 78 C15 78.99 15 79.98 15 81 C-0.96263922 83.52562958 -0.96263922 83.52562958 -7.48681641 79.44433594 C-12.19380729 75.4635329 -16.14116622 70.85850053 -20.09570312 66.14794922 C-22.55166869 63.37774601 -25.2212349 61.00030299 -28.0690918 58.64135742 C-30 57 -30 57 -31.67504883 55.24731445 C-35.07071423 51.81023234 -37.39843299 50.62277673 -42.27734375 50.4140625 C-44.16495976 50.45352486 -46.05214919 50.52448232 -47.9375 50.625 C-48.90751953 50.65207031 -49.87753906 50.67914063 -50.87695312 50.70703125 C-53.25365349 50.77727855 -55.62562471 50.87555351 -58 51 C-57.99476318 51.87325928 -57.98952637 52.74651855 -57.98413086 53.64624023 C-57.96712249 56.87589273 -57.95456631 60.10552245 -57.94506836 63.33520508 C-57.9400292 64.73495228 -57.93319784 66.1346942 -57.92456055 67.53442383 C-57.9124768 69.54245777 -57.90730193 71.55052957 -57.90234375 73.55859375 C-57.89710693 74.76829834 -57.89187012 75.97800293 -57.88647461 77.22436523 C-58 80 -58 80 -59 81 C-63.62 81 -68.24 81 -73 81 C-73 54.6 -73 28.2 -73 1 C-61.883125 0.835 -50.76625 0.67 -39.3125 0.5 C-35.80794189 0.44779297 -32.30338379 0.39558594 -28.69262695 0.34179688 C-24.39880371 0.27832031 -24.39880371 0.27832031 -22.38591003 0.24865723 C-20.98612775 0.2279596 -19.5863476 0.20711666 -18.18656921 0.18615723 C-16.06098924 0.15435871 -13.93540283 0.1230276 -11.80981445 0.09179688 C-10.61290482 0.07403198 -9.41599518 0.05626709 -8.18281555 0.03796387 C-5.45474787 0.00542412 -2.72820895 -0.00754564 0 0 Z M-58 13 C-58 20.92 -58 28.84 -58 37 C-33.25 37.495 -33.25 37.495 -8 38 C-6.11480471 34.22960943 -6.81524006 29.64845405 -6.8125 25.5 C-6.79413086 24.03626953 -6.79413086 24.03626953 -6.77539062 22.54296875 C-6.77345703 21.61097656 -6.77152344 20.67898437 -6.76953125 19.71875 C-6.76542236 18.86216797 -6.76131348 18.00558594 -6.75708008 17.12304688 C-6.80175267 14.78348731 -6.80175267 14.78348731 -9 13 C-11.18289315 12.70793189 -11.18289315 12.70793189 -13.72509766 12.77294922 C-14.70596344 12.77310028 -15.68682922 12.77325134 -16.69741821 12.77340698 C-17.75891083 12.78372955 -18.82040344 12.79405212 -19.9140625 12.8046875 C-21.54122696 12.80893234 -21.54122696 12.80893234 -23.20126343 12.81326294 C-26.67595313 12.82448422 -30.15038782 12.84959238 -33.625 12.875 C-35.97655879 12.88502728 -38.3281216 12.89415357 -40.6796875 12.90234375 C-46.45330299 12.92273081 -52.22636506 12.96187622 -58 13 Z M-58 38 C-58 38.33 -58 38.66 -58 39 C-42.49 39 -26.98 39 -11 39 C-11 38.67 -11 38.34 -11 38 C-26.51 38 -42.02 38 -58 38 Z " fill="#000000" transform="translate(513,32)"/>
<path d="M0 0 C20.46 0 40.92 0 62 0 C62 0.66 62 1.32 62 2 C63.134375 2.5775 64.26875 3.155 65.4375 3.75 C68.875 5.71428571 68.875 5.71428571 69.875 8 C69.91625 8.66 69.9575 9.32 70 10 C70.185625 10.5775 70.37125 11.155 70.5625 11.75 C71.22871543 15.17625079 71.05811653 18.51300798 71 22 C69.02270019 22.52787642 67.04309608 23.04712903 65.0625 23.5625 C63.96035156 23.85253906 62.85820312 24.14257812 61.72265625 24.44140625 C60.37494141 24.71791016 60.37494141 24.71791016 59 25 C58.67 24.67 58.34 24.34 58 24 C58 20.37 58 16.74 58 13 C40.84 13 23.68 13 6 13 C6 19.27 6 25.54 6 32 C7.61487305 31.98952637 9.22974609 31.97905273 10.89355469 31.96826172 C16.87953478 31.93208737 22.86550519 31.90910876 28.8515625 31.89013672 C31.4433759 31.88007332 34.03517793 31.86642136 36.62695312 31.84912109 C40.35028894 31.82488805 44.07347477 31.81352026 47.796875 31.8046875 C49.53768341 31.78920364 49.53768341 31.78920364 51.31365967 31.77340698 C52.93488739 31.77318039 52.93488739 31.77318039 54.58886719 31.77294922 C56.01449982 31.76628738 56.01449982 31.76628738 57.46893311 31.75949097 C62.86551159 32.2722889 65.29040185 35.29040185 69 39 C70.485 39.495 70.485 39.495 72 40 C73.91270464 45.71261119 74.31130207 51.01283109 74.25 57 C74.26160156 58.13308594 74.26160156 58.13308594 74.2734375 59.2890625 C74.25553883 64.4975749 73.43389103 68.99276147 72 74 C71.34 74 70.68 74 70 74 C69.401875 74.78375 68.80375 75.5675 68.1875 76.375 C65.7633986 79.28392168 64.55299065 79.89449287 61 81 C58.1300354 81.26069641 58.1300354 81.26069641 54.94384766 81.2746582 C53.74555328 81.28419022 52.54725891 81.29372223 51.31265259 81.30354309 C50.02611786 81.30263168 48.73958313 81.30172028 47.4140625 81.30078125 C46.07034168 81.3046725 44.72662208 81.30900805 43.38290405 81.31376648 C40.57033293 81.32121402 37.75788737 81.32094847 34.9453125 81.31567383 C31.35537282 81.30988606 27.76595023 81.32679991 24.17609596 81.3500185 C21.40155066 81.36481012 18.62712826 81.36562013 15.85255051 81.36250877 C13.89009069 81.36326638 11.92764984 81.37709719 9.96524048 81.39118958 C3.57476046 81.35814541 -1.42550403 81.27241205 -7 78 C-11.14634594 73.63542533 -12.14076835 70.35851682 -12.125 64.4375 C-12.12757813 63.46683594 -12.13015625 62.49617188 -12.1328125 61.49609375 C-12 59 -12 59 -11 57 C-9.02 57 -7.04 57 -5 57 C-4.67 56.34 -4.34 55.68 -4 55 C1.875 55.875 1.875 55.875 3 57 C3.07205511 58.68608966 3.08386068 60.37500659 3.0625 62.0625 C3.05347656 62.98160156 3.04445312 63.90070313 3.03515625 64.84765625 C3.02355469 65.55792969 3.01195312 66.26820312 3 67 C3.6742955 66.99777939 4.348591 66.99555878 5.0433197 66.99327087 C12.03432691 66.97122071 19.02532431 66.95609453 26.01635742 66.94506836 C28.62866619 66.94002623 31.24097211 66.93319275 33.85327148 66.92456055 C37.59880268 66.91248964 41.34429672 66.90677065 45.08984375 66.90234375 C46.26586655 66.89718246 47.44188934 66.89202118 48.65354919 66.88670349 C49.73459427 66.88662796 50.81563934 66.88655243 51.92944336 66.88647461 C52.88652695 66.884254 53.84361053 66.88203339 54.82969666 66.87974548 C57 67 57 67 58 68 C58 61.07 58 54.14 58 47 C56.46666016 47.01047363 54.93332031 47.02094727 53.35351562 47.03173828 C47.64325309 47.06804624 41.93300068 47.09093982 36.22265625 47.10986328 C33.75519085 47.11989626 31.28773727 47.13352573 28.8203125 47.15087891 C25.26559526 47.17524592 21.71103578 47.18651042 18.15625 47.1953125 C17.06010376 47.20563507 15.96395752 47.21595764 14.83459473 47.22659302 C0.77073527 47.22863489 0.77073527 47.22863489 -4.875 42.6875 C-9.63226097 36.67096407 -9.33558391 30.9262664 -9.3125 23.5625 C-9.32861328 22.53833984 -9.34472656 21.51417969 -9.36132812 20.45898438 C-9.36490655 14.93031201 -9.26352953 10.6979646 -6 6 C-4.03625365 4.61382611 -2.04087808 3.26987969 0 2 C0 1.34 0 0.68 0 0 Z M4 13 C4 19.93 4 26.86 4 34 C22.48 34 40.96 34 60 34 C60 33.67 60 33.34 60 33 C41.85 33 23.7 33 5 33 C5 26.4 5 19.8 5 13 C4.67 13 4.34 13 4 13 Z M70 41 C71 43 71 43 71 43 Z M71 43 C71 44.65 71 46.3 71 48 C71.33 48 71.66 48 72 48 C72 46.35 72 44.7 72 43 C71.67 43 71.34 43 71 43 Z M72 49 C72 54.28 72 59.56 72 65 C72.33 65 72.66 65 73 65 C73 59.72 73 54.44 73 49 C72.67 49 72.34 49 72 49 Z M71 67 C72 71 72 71 72 71 Z " fill="#000000" transform="translate(180,32)"/>
<path d="M0 0 C7.90158503 -0.04632389 15.80311339 -0.0818694 23.70480061 -0.10362434 C27.37380581 -0.1140652 31.04271816 -0.1282298 34.71166992 -0.15087891 C38.25187786 -0.17259669 41.79199644 -0.18456636 45.33226585 -0.18975449 C47.34143905 -0.19525273 49.35057626 -0.21086735 51.35969543 -0.22659302 C52.58073471 -0.22674408 53.80177399 -0.22689514 55.05981445 -0.22705078 C56.67530937 -0.23371262 56.67530937 -0.23371262 58.32344055 -0.24050903 C61.97521331 0.08763026 63.98245824 1.98830549 67 4 C70.02807569 9.53965687 71.54611751 14.71964864 71 21 C61.92307692 24.53846154 61.92307692 24.53846154 58 25 C57.34 24.67 56.68 24.34 56 24 C56 20.37 56 16.74 56 13 C39.5 13 23 13 6 13 C6 19.27 6 25.54 6 32 C7.62010986 31.98952637 9.24021973 31.97905273 10.90942383 31.96826172 C16.90842487 31.93211789 22.90741625 31.90911994 28.90649414 31.89013672 C31.50514341 31.88006632 34.10378131 31.86640929 36.70239258 31.84912109 C40.43313397 31.82491861 44.16372581 31.81352734 47.89453125 31.8046875 C49.06023148 31.79436493 50.2259317 31.78404236 51.42695618 31.77340698 C52.50785019 31.77325592 53.5887442 31.77310486 54.70239258 31.77294922 C55.65503494 31.768508 56.60767731 31.76406677 57.58918762 31.75949097 C60 32 60 32 63 34 C63.639375 34.226875 64.27875 34.45375 64.9375 34.6875 C68.06486956 36.67764427 69.63420643 39.64001957 71 43 C73.18606519 52.94445339 73.82893522 66.7253784 69 76 C65.38248184 79.80303192 62.38231743 80.87861979 57.24356079 81.14044189 C56.18688202 81.1472699 55.13020325 81.1540979 54.04150391 81.16113281 C52.83990631 81.17074036 51.63830872 81.1803479 50.40029907 81.19024658 C48.45804947 81.1966214 48.45804947 81.1966214 46.4765625 81.203125 C45.12901814 81.2088818 43.78147379 81.21463946 42.43392944 81.22039795 C39.61122254 81.23088789 36.78854395 81.23674379 33.96582031 81.24023438 C30.35897374 81.2457176 26.75250493 81.26974996 23.14577675 81.29820633 C20.36271082 81.31688116 17.57973507 81.32204085 14.79661179 81.32357025 C12.82356134 81.32804673 10.85055926 81.34666745 8.87759399 81.36553955 C7.66969208 81.36253845 6.46179016 81.35953735 5.21728516 81.35644531 C4.1590152 81.36009094 3.10074524 81.36373657 2.01040649 81.36749268 C-2.80259997 80.77994922 -6.03849063 79.03946959 -9.3125 75.5 C-12.10558428 71.36209737 -12.11086556 68.19742135 -12.0625 63.3125 C-12.05347656 62.13300781 -12.04445313 60.95351562 -12.03515625 59.73828125 C-12.02355469 58.83464844 -12.01195312 57.93101563 -12 57 C-1.18918919 55.27027027 -1.18918919 55.27027027 4 57 C4 60.3 4 63.6 4 67 C21.16 67 38.32 67 56 67 C56 60.73 56 54.46 56 48 C56.33 48 56.66 48 57 48 C56.99214478 48.90093384 56.99214478 48.90093384 56.98413086 49.82006836 C56.96341986 52.52586838 56.95035875 55.23165177 56.9375 57.9375 C56.92493164 59.35579102 56.92493164 59.35579102 56.91210938 60.80273438 C56.90727539 62.15141602 56.90727539 62.15141602 56.90234375 63.52734375 C56.89448853 64.77632446 56.89448853 64.77632446 56.88647461 66.05053711 C56.78356708 68.00516798 56.78356708 68.00516798 58 69 C57.67 61.74 57.34 54.48 57 47 C54.70784546 47.02356567 54.70784546 47.02356567 52.36938477 47.04760742 C46.67217326 47.10211819 40.97498459 47.13642708 35.27758789 47.16479492 C32.81693641 47.1798334 30.35631151 47.20026942 27.89575195 47.22631836 C24.34840308 47.26291856 20.80141023 47.27977635 17.25390625 47.29296875 C16.1629213 47.30845261 15.07193634 47.32393646 13.94789124 47.33988953 C7.63287232 47.3412649 1.68922756 46.99745048 -4 44 C-9.39683943 37.52379268 -9.21017487 31.78471984 -9.25 23.75 C-9.270625 22.72519531 -9.29125 21.70039062 -9.3125 20.64453125 C-9.34346705 14.62918264 -8.94431032 10.28832435 -6 5 C-4.04783565 3.04783565 -2.46800047 2.15173355 0 1 C0 0.67 0 0.34 0 0 Z M57 1 C61 2 61 2 61 2 Z M4 13 C4 19.93 4 26.86 4 34 C22.48 34 40.96 34 60 34 C60 33.67 60 33.34 60 33 C41.85 33 23.7 33 5 33 C5 26.4 5 19.8 5 13 C4.67 13 4.34 13 4 13 Z " fill="#000000" transform="translate(710,32)"/>
<path d="M0 0 C1.5 3 1.5 3 3 6 C3.66 6 4.32 6 5 6 C6.83290085 12.25815149 7.33595211 17.93188588 7.3125 24.4375 C7.32861328 25.32759766 7.34472656 26.21769531 7.36132812 27.13476562 C7.36645363 34.15157765 6.66803001 41.10963415 1.75 46.4375 C-4.45839633 49.96499792 -11.01717522 50.46610193 -18 51 C-10.86853274 57.60729752 -3.5911558 63.92055001 4 70 C4.96164062 70.77214844 5.92328125 71.54429688 6.9140625 72.33984375 C9.27305042 74.2303566 11.63489438 76.11715019 14 78 C13.67 78.66 13.34 79.32 13 80 C-5.19057757 81.94128693 -5.19057757 81.94128693 -10.71875 77.57421875 C-13.78006437 74.63448311 -16.36350961 71.31862996 -19 68 C-20.96096043 66.17095873 -22.98451516 64.48942717 -25.0625 62.796875 C-27 61 -27 61 -28.9375 58.390625 C-32.02091945 54.49230184 -34.5503232 51.51019585 -39.59765625 50.45898438 C-46.05368046 49.7583639 -52.51621076 49.76691705 -59 50 C-59.02505615 50.87325928 -59.0501123 51.74651855 -59.07592773 52.64624023 C-59.17087709 55.87602552 -59.27012029 59.10564154 -59.37231445 62.33520508 C-59.41571434 63.73489199 -59.45738564 65.13463359 -59.49731445 66.53442383 C-59.55489445 68.54261495 -59.61914 70.55061149 -59.68359375 72.55859375 C-59.72025146 73.76829834 -59.75690918 74.97800293 -59.79467773 76.22436523 C-60 79 -60 79 -61 80 C-65.62 80 -70.24 80 -75 80 C-75 53.6 -75 27.2 -75 0 C-58.3865625 -0.2784375 -58.3865625 -0.2784375 -41.4375 -0.5625 C-36.20797485 -0.65446655 -36.20797485 -0.65446655 -30.87280273 -0.74829102 C-26.5880127 -0.81628418 -26.5880127 -0.81628418 -24.57679749 -0.8467865 C-23.18373781 -0.86895707 -21.79071164 -0.89330251 -20.39772034 -0.91941833 C-18.2774839 -0.95873392 -16.15724081 -0.99096421 -14.03686523 -1.02172852 C-12.84439682 -1.04171402 -11.65192841 -1.06169952 -10.42332458 -1.08229065 C-6.85439686 -0.99649996 -3.50197204 -0.69938822 0 0 Z M-60 12 C-60 20.58 -60 29.16 -60 38 C-53.37954685 38.04590453 -46.75964563 38.08573263 -40.13916016 38.10986328 C-37.88686248 38.11992253 -35.63457786 38.13357146 -33.38232422 38.15087891 C-30.14547502 38.17513031 -26.90879845 38.1864839 -23.671875 38.1953125 C-22.16074127 38.21079636 -22.16074127 38.21079636 -20.61907959 38.22659302 C-19.20806976 38.22681961 -19.20806976 38.22681961 -17.76855469 38.22705078 C-16.52945343 38.23371262 -16.52945343 38.23371262 -15.26531982 38.24050903 C-12.77802236 37.97643263 -11.15066625 37.24570507 -9 36 C-8.91318524 32.37515001 -8.85967279 28.75056557 -8.8125 25.125 C-8.78736328 24.09246094 -8.76222656 23.05992188 -8.73632812 21.99609375 C-8.72182617 20.51689453 -8.72182617 20.51689453 -8.70703125 19.0078125 C-8.68346558 17.64100342 -8.68346558 17.64100342 -8.65942383 16.24658203 C-8.77181396 15.50520996 -8.8842041 14.76383789 -9 14 C-12.22174249 11.85217167 -13.0433731 11.75350852 -16.74682617 11.77294922 C-17.70759567 11.77310028 -18.66836517 11.77325134 -19.6582489 11.77340698 C-20.69270645 11.78372955 -21.727164 11.79405212 -22.79296875 11.8046875 C-23.85413406 11.8075174 -24.91529938 11.81034729 -26.00862122 11.81326294 C-29.40169497 11.82446816 -32.79450587 11.84957353 -36.1875 11.875 C-38.48632432 11.88502935 -40.78515276 11.89415528 -43.08398438 11.90234375 C-48.72283928 11.92270798 -54.361125 11.96185654 -60 12 Z M-9 17 C-9 22.28 -9 27.56 -9 33 C-8.67 33 -8.34 33 -8 33 C-8 27.72 -8 22.44 -8 17 C-8.33 17 -8.66 17 -9 17 Z " fill="#000000" transform="translate(1531,33)"/>
<path d="M0 0 C25.41 0 50.82 0 77 0 C77 3.96 77 7.92 77 12 C56.54 12 36.08 12 15 12 C15.66 12.33 16.32 12.66 17 13 C17 18.94 17 24.88 17 31 C28.55 31 40.1 31 52 31 C53.31164842 33.62329684 53.13262846 35.63698625 53.125 38.5625 C53.12886719 40.04943359 53.12886719 40.04943359 53.1328125 41.56640625 C53 44 53 44 52 45 C49.26105915 45.08858646 46.5474673 45.11523479 43.80859375 45.09765625 C42.98875504 45.0962413 42.16891632 45.09482635 41.32423401 45.09336853 C38.69528618 45.08775289 36.06642227 45.07519779 33.4375 45.0625 C31.65950643 45.05748701 29.88151154 45.05292376 28.10351562 45.04882812 C23.73564455 45.03777839 19.36783652 45.02050331 15 45 C15.66 45.33 16.32 45.66 17 46 C17 52.6 17 59.2 17 66 C36.8 66 56.6 66 77 66 C78.31164842 68.62329684 78.13262846 70.63698625 78.125 73.5625 C78.12886719 75.04943359 78.12886719 75.04943359 78.1328125 76.56640625 C78 79 78 79 77 80 C74.5964754 80.09496873 72.22192907 80.12557554 69.81811523 80.11352539 C68.67307699 80.11370619 68.67307699 80.11370619 67.50490665 80.11389065 C65.02277317 80.11314155 62.54071388 80.1055135 60.05859375 80.09765625 C58.53064002 80.09618682 57.00268578 80.09516612 55.47473145 80.09460449 C49.79564664 80.08935173 44.1165726 80.07539065 38.4375 80.0625 C25.753125 80.041875 13.06875 80.02125 0 80 C0 53.6 0 27.2 0 0 Z " fill="#000000" transform="translate(575,33)"/>
<path d="M0 0 C25.41 0 50.82 0 77 0 C77 3.96 77 7.92 77 12 C56.21 12 35.42 12 14 12 C14.66 12.33 15.32 12.66 16 13 C16 18.94 16 24.88 16 31 C27.88 31 39.76 31 52 31 C52 31.66 52 32.32 52 33 C52.66 33 53.32 33 54 33 C54.05395478 34.62463842 54.09277195 36.24978541 54.125 37.875 C54.14820313 38.77992187 54.17140625 39.68484375 54.1953125 40.6171875 C54 43 54 43 52 45 C49.27514272 45.17517747 46.65340638 45.23149133 43.9296875 45.1953125 C43.13345978 45.1924826 42.33723206 45.18965271 41.51687622 45.18673706 C38.96943237 45.1755264 36.42233789 45.15042062 33.875 45.125 C32.14974465 45.11497133 30.42448381 45.10584528 28.69921875 45.09765625 C24.46590238 45.07728418 20.23334305 45.03813823 16 45 C16 51.93 16 58.86 16 66 C36.13 66 56.26 66 77 66 C77 66.33 77 66.66 77 67 C76.22547989 66.99777939 75.45095978 66.99555878 74.65296936 66.99327087 C67.36878979 66.97326866 60.08462345 66.95802623 52.80042362 66.94818783 C49.05516963 66.94295986 45.30993824 66.93586378 41.56469727 66.92456055 C37.95318313 66.91372859 34.34169079 66.90772251 30.73016167 66.90512276 C29.34939671 66.90326906 27.968633 66.89964951 26.58787727 66.89426994 C24.66024048 66.88705553 22.73258193 66.88659191 20.80493164 66.88647461 C19.70572891 66.884254 18.60652618 66.88203339 17.47401428 66.87974548 C15.0564853 66.71953367 15.0564853 66.71953367 14 68 C34.79 68 55.58 68 77 68 C77 71.96 77 75.92 77 80 C51.59 80 26.18 80 0 80 C0 53.6 0 27.2 0 0 Z " fill="#000000" transform="translate(45,33)"/>
<path d="M0 0 C0 0.66 0 1.32 0 2 C0.804375 2.12375 1.60875 2.2475 2.4375 2.375 C3.7059375 2.684375 3.7059375 2.684375 5 3 C6 5 6 5 7 8 C7.99 9.485 7.99 9.485 9 11 C9.33 11 9.66 11 10 11 C10.04938628 15.23582327 10.08571263 19.47149465 10.10986328 23.70751953 C10.11992963 25.14895547 10.1335838 26.59037095 10.15087891 28.03173828 C10.17510012 30.10193934 10.18647641 32.17187076 10.1953125 34.2421875 C10.20578613 35.4885498 10.21625977 36.73491211 10.22705078 38.01904297 C10 41 10 41 8 43 C7.319375 43.804375 6.63875 44.60875 5.9375 45.4375 C-1.04962004 51.53264727 -9.37270637 51.4190156 -18.25390625 51.29296875 C-19.39536606 51.28872391 -20.53682587 51.28447906 -21.71287537 51.28010559 C-25.3296651 51.26342151 -28.94588098 51.22578766 -32.5625 51.1875 C-35.02668462 51.17243992 -37.49087803 51.15875384 -39.95507812 51.14648438 C-45.97044669 51.11611395 -51.98458713 51.05737059 -58 51 C-58 60.9 -58 70.8 -58 81 C-62.95 81 -67.9 81 -73 81 C-73 54.6 -73 28.2 -73 1 C-61.883125 0.835 -50.76625 0.67 -39.3125 0.5 C-35.80794189 0.44779297 -32.30338379 0.39558594 -28.69262695 0.34179688 C-24.39880371 0.27832031 -24.39880371 0.27832031 -22.38591003 0.24865723 C-20.98612775 0.2279596 -19.5863476 0.20711666 -18.18656921 0.18615723 C-16.06098924 0.15435871 -13.93540283 0.1230276 -11.80981445 0.09179688 C-10.61290482 0.07403198 -9.41599518 0.05626709 -8.18281555 0.03796387 C-5.45474787 0.00542412 -2.72820895 -0.00754564 0 0 Z M-58 13 C-58 20.92 -58 28.84 -58 37 C-51.05828965 37.18843968 -44.1169977 37.37075981 -37.17480469 37.53710938 C-34.81175532 37.59561679 -32.4487936 37.65778059 -30.0859375 37.72363281 C-26.69547482 37.81749629 -23.30491741 37.89833501 -19.9140625 37.9765625 C-18.32182358 38.02485703 -18.32182358 38.02485703 -16.69741821 38.0741272 C-15.22611954 38.10438492 -15.22611954 38.10438492 -13.72509766 38.13525391 C-12.85905914 38.15746002 -11.99302063 38.17966614 -11.10073853 38.20254517 C-8.77949391 38.20348126 -8.77949391 38.20348126 -7 36 C-6.68980304 33.80397205 -6.68980304 33.80397205 -6.734375 31.28125 C-6.73179687 30.34925781 -6.72921875 29.41726562 -6.7265625 28.45703125 C-6.73816406 26.99330078 -6.73816406 26.99330078 -6.75 25.5 C-6.74226563 24.52417969 -6.73453125 23.54835938 -6.7265625 22.54296875 C-6.72914063 21.61097656 -6.73171875 20.67898437 -6.734375 19.71875 C-6.73663086 18.86216797 -6.73888672 18.00558594 -6.74121094 17.12304688 C-6.80498428 14.78411453 -6.80498428 14.78411453 -9 13 C-11.18289315 12.70793189 -11.18289315 12.70793189 -13.72509766 12.77294922 C-14.70596344 12.77310028 -15.68682922 12.77325134 -16.69741821 12.77340698 C-17.75891083 12.78372955 -18.82040344 12.79405212 -19.9140625 12.8046875 C-21.54122696 12.80893234 -21.54122696 12.80893234 -23.20126343 12.81326294 C-26.67595313 12.82448422 -30.15038782 12.84959238 -33.625 12.875 C-35.97655879 12.88502728 -38.3281216 12.89415357 -40.6796875 12.90234375 C-46.45330299 12.92273081 -52.22636506 12.96187622 -58 13 Z M-58 38 C-58 38.33 -58 38.66 -58 39 C-42.49 39 -26.98 39 -11 39 C-11 38.67 -11 38.34 -11 38 C-26.51 38 -42.02 38 -58 38 Z " fill="#000000" transform="translate(382,32)"/>
<path d="M0 0 C1.46535356 0.02652224 2.93044676 0.07413383 4.39453125 0.140625 C5.14412109 0.15867188 5.89371094 0.17671875 6.66601562 0.1953125 C8.51356835 0.24238391 10.36046284 0.31412734 12.20703125 0.390625 C12.81623413 1.49627808 12.81623413 1.49627808 13.43774414 2.62426758 C20.9305642 16.22055928 28.42842423 29.81410926 35.95703125 43.390625 C36.87282959 45.04348511 36.87282959 45.04348511 37.80712891 46.72973633 C40.76759475 52.0580206 43.7571249 57.36611786 46.8125 62.640625 C47.37549805 63.61386719 47.93849609 64.58710937 48.51855469 65.58984375 C49.57435038 67.4084756 50.63588009 69.2237951 51.70410156 71.03515625 C52.1678418 71.83308594 52.63158203 72.63101563 53.109375 73.453125 C53.51663818 74.14535156 53.92390137 74.83757812 54.34350586 75.55078125 C55.20703125 77.390625 55.20703125 77.390625 55.20703125 80.390625 C52.58142016 80.47136703 49.95827449 80.5309873 47.33203125 80.578125 C46.58566406 80.60326172 45.83929687 80.62839844 45.0703125 80.65429688 C42.90234375 80.68359375 42.90234375 80.68359375 39.20703125 80.390625 C38.54703125 79.400625 37.88703125 78.410625 37.20703125 77.390625 C36.69140625 76.771875 36.17578125 76.153125 35.64453125 75.515625 C34.20703125 73.390625 34.20703125 73.390625 33.76953125 71.078125 C33.15879903 67.47274226 33.15879903 67.47274226 29.20703125 61.390625 C12.04703125 61.390625 -5.11296875 61.390625 -22.79296875 61.390625 C-23.78296875 63.865625 -23.78296875 63.865625 -24.79296875 66.390625 C-25.95428403 68.65425109 -27.14341095 70.90375841 -28.35546875 73.140625 C-28.97550781 74.29046875 -29.59554688 75.4403125 -30.234375 76.625 C-31.79296875 79.390625 -31.79296875 79.390625 -32.79296875 80.390625 C-34.97936328 80.46321446 -37.16797264 80.47436283 -39.35546875 80.453125 C-40.55300781 80.44410156 -41.75054688 80.43507813 -42.984375 80.42578125 C-44.37462891 80.40837891 -44.37462891 80.40837891 -45.79296875 80.390625 C-46.16345792 73.84531626 -46.16345792 73.84531626 -44.41796875 71.703125 C-43.88171875 71.27 -43.34546875 70.836875 -42.79296875 70.390625 C-41.56903978 68.23075035 -40.67754074 66.08762647 -39.79296875 63.765625 C-38.79296875 61.390625 -38.79296875 61.390625 -36.79296875 59.390625 C-35.59898691 57.22653292 -34.67363908 55.07738462 -33.79296875 52.765625 C-32.79296875 50.390625 -32.79296875 50.390625 -30.79296875 48.390625 C-29.59898691 46.22653292 -28.67363908 44.07738462 -27.79296875 41.765625 C-26.79296875 39.390625 -26.79296875 39.390625 -24.79296875 37.390625 C-23.59898691 35.22653292 -22.67363908 33.07738462 -21.79296875 30.765625 C-20.79296875 28.390625 -20.79296875 28.390625 -18.79296875 26.390625 C-17.19518114 23.49463496 -15.99065597 20.47039214 -14.79296875 17.390625 C-14.13296875 17.390625 -13.47296875 17.390625 -12.79296875 17.390625 C-12.50421875 16.50375 -12.21546875 15.616875 -11.91796875 14.703125 C-9.25011161 6.84776786 -9.25011161 6.84776786 -6.79296875 4.390625 C-6.42558594 3.69453125 -6.05820313 2.9984375 -5.6796875 2.28125 C-3.79296875 0.390625 -3.79296875 0.390625 0 0 Z M3.20703125 11.390625 C2.95123291 11.9074585 2.69543457 12.42429199 2.43188477 12.95678711 C-2.61248402 23.13429837 -7.7119403 33.27015774 -13.09936523 43.27124023 C-14.96308296 46.18060078 -14.96308296 46.18060078 -15.79296875 49.390625 C-2.92296875 49.390625 9.94703125 49.390625 23.20703125 49.390625 C20.98436591 42.4562126 20.98436591 42.4562126 16.58203125 36.890625 C15.20703125 35.390625 15.20703125 35.390625 14.8046875 33.15625 C14.10822271 29.93339334 12.86232196 27.52244682 11.26953125 24.640625 C10.74488281 23.67640625 10.22023438 22.7121875 9.6796875 21.71875 C8.41846539 19.28099822 8.41846539 19.28099822 6.20703125 18.390625 C5.86549188 16.72562057 5.53253627 15.05883823 5.20703125 13.390625 C4.54703125 12.730625 3.88703125 12.070625 3.20703125 11.390625 Z " fill="#000000" transform="translate(1357.79296875,32.609375)"/>
<path d="M0 0 C0.54785156 0.928125 1.09570312 1.85625 1.66015625 2.8125 C3.24297242 4.43773671 4.84815397 6.04143006 6.47265625 7.625 C9.56574762 10.67727344 12.53661365 13.74903123 15.34765625 17.0625 C18.48699644 20.74001279 21.91661861 23.7565509 25.66015625 26.8125 C26.98139567 25.40398053 28.29185394 23.98534259 29.59765625 22.5625 C30.32855469 21.77359375 31.05945313 20.9846875 31.8125 20.171875 C33.77638138 18.00647324 33.77638138 18.00647324 34.1640625 15.640625 C34.40962891 14.73570313 34.40962891 14.73570313 34.66015625 13.8125 C35.98142895 13.1222387 37.31766178 12.46052069 38.66015625 11.8125 C40.42546293 10.05544242 42.12950882 8.23575002 43.78515625 6.375 C44.65398437 5.40691406 45.5228125 4.43882813 46.41796875 3.44140625 C48.73067776 0.83443879 48.73067776 0.83443879 50.66015625 -2.1875 C53.62543804 -2.2437279 56.34865651 -2.14433804 59.28515625 -1.875 C60.08695313 -1.81376953 60.88875 -1.75253906 61.71484375 -1.68945312 C63.69773749 -1.53601492 65.67914144 -1.36354307 67.66015625 -1.1875 C66.07076199 2.74464301 63.49673123 5.14270346 60.47265625 8.0625 C56.57393773 11.86991661 52.8755617 15.76397201 49.34375 19.9140625 C46.92259814 22.64417806 44.29932254 25.15046889 41.65234375 27.66015625 C39.92316245 29.52835016 38.49926052 31.37344015 37.03564453 33.44702148 C36.58955841 34.07728745 36.14347229 34.70755341 35.68386841 35.35691833 C35.3460434 35.83726028 35.00821838 36.31760223 34.66015625 36.8125 C35.1612793 37.30918182 35.66240234 37.80586365 36.17871094 38.31759644 C40.89285342 42.99171948 45.60221309 47.67060164 50.30621338 52.35493279 C52.72494841 54.7632159 55.14551473 57.16959743 57.5703125 59.57177734 C60.35576111 62.33140491 63.13316541 65.099048 65.91015625 67.8671875 C66.78510742 68.7318161 67.66005859 69.5964447 68.56152344 70.48727417 C69.36235352 71.28795319 70.16318359 72.0886322 70.98828125 72.91357422 C71.69887695 73.6197287 72.40947266 74.32588318 73.14160156 75.05343628 C74.66015625 76.8125 74.66015625 76.8125 74.66015625 78.8125 C69.61377497 79.18392509 64.58387701 79.38977758 59.5234375 79.28515625 C58.26720581 79.26207397 58.26720581 79.26207397 56.9855957 79.23852539 C54.1528655 78.71956327 52.85261482 77.72086756 50.78515625 75.75 C50.33269531 75.02554688 49.88023437 74.30109375 49.4140625 73.5546875 C46.96350834 69.72330884 43.86441089 66.64694908 40.72265625 63.375 C36.06560198 58.43339566 31.50355008 53.43633229 27.11328125 48.25390625 C25.76462824 46.57775392 25.76462824 46.57775392 23.66015625 46.8125 C22.26689671 48.36490341 20.94635497 49.98279985 19.66015625 51.625 C15.64656466 56.65004244 11.45549126 61.41253806 7.03125 66.0859375 C4.60043362 68.72763233 4.60043362 68.72763233 2.8828125 71.7265625 C0.98154231 74.7875644 -0.37571162 76.73496096 -3.33984375 78.8125 C-9.26841883 80.01226508 -15.36757902 79.38675622 -21.33984375 78.8125 C-19.85570645 75.32595524 -17.87770323 73.17058928 -15.15234375 70.5625 C-12.25404731 67.7335408 -9.46998565 64.89229145 -6.83984375 61.8125 C-4.29292767 58.84109791 -1.62605516 56.0610599 1.16015625 53.3125 C6.40971991 48.12564444 11.24998022 42.72924363 15.66015625 36.8125 C14.92170471 36.18001846 14.92170471 36.18001846 14.16833496 35.53475952 C9.37158315 31.38785657 4.79172157 27.09160986 0.31640625 22.6015625 C-0.33815552 21.94795746 -0.99271729 21.29435242 -1.66711426 20.62094116 C-3.03288438 19.25584531 -4.39741768 17.88951096 -5.76074219 16.52197266 C-7.85887996 14.41841462 -9.96238673 12.32032954 -12.06640625 10.22265625 C-13.39745671 8.89094606 -14.72819752 7.55892628 -16.05859375 6.2265625 C-16.68971069 5.59746979 -17.32082764 4.96837708 -17.97106934 4.32022095 C-22.33984375 -0.07251146 -22.33984375 -0.07251146 -22.33984375 -1.1875 C-19.09248776 -1.50105324 -15.84309044 -1.75578245 -12.58984375 -2 C-11.66945313 -2.08958984 -10.7490625 -2.17917969 -9.80078125 -2.27148438 C-2.9352214 -2.7441135 -2.9352214 -2.7441135 0 0 Z " fill="#000000" transform="translate(849.33984375,34.1875)"/>
<path d="M0 0 C0.33 0 0.66 0 1 0 C1 26.07 1 52.14 1 79 C0.67 79 0.34 79 0 79 C0 52.93 0 26.86 0 0 Z " fill="#000000" transform="translate(1189,33)"/>
<path d="M0 0 C0.33 0 0.66 0 1 0 C1 26.07 1 52.14 1 79 C0.67 79 0.34 79 0 79 C0 52.93 0 26.86 0 0 Z " fill="#000000" transform="translate(573,33)"/>
<path d="M0 0 C0.33 0 0.66 0 1 0 C1 25.74 1 51.48 1 78 C0.67 78 0.34 78 0 78 C0 52.26 0 26.52 0 0 Z " fill="#000000" transform="translate(1454,34)"/>
<path d="M0 0 C0.33 0 0.66 0 1 0 C1 25.74 1 51.48 1 78 C0.67 78 0.34 78 0 78 C0 52.26 0 26.52 0 0 Z " fill="#000000" transform="translate(438,34)"/>
<path d="M0 0 C0.33 0 0.66 0 1 0 C1 25.74 1 51.48 1 78 C0.67 78 0.34 78 0 78 C0 52.26 0 26.52 0 0 Z " fill="#000000" transform="translate(307,34)"/>
<path d="M0 0 C24.75 0 49.5 0 75 0 C75 0.33 75 0.66 75 1 C50.25 1 25.5 1 0 1 C0 0.67 0 0.34 0 0 Z " fill="#000000" transform="translate(576,31)"/>
<path d="M0 0 C24.75 0 49.5 0 75 0 C75 0.33 75 0.66 75 1 C50.25 1 25.5 1 0 1 C0 0.67 0 0.34 0 0 Z " fill="#000000" transform="translate(46,31)"/>
<path d="M0 0 C22.11 0 44.22 0 67 0 C67 0.33 67 0.66 67 1 C44.89 1 22.78 1 0 1 C0 0.67 0 0.34 0 0 Z " fill="#000000" transform="translate(1457,31)"/>
<path d="M0 0 C22.11 0 44.22 0 67 0 C67 0.33 67 0.66 67 1 C44.89 1 22.78 1 0 1 C0 0.67 0 0.34 0 0 Z " fill="#000000" transform="translate(1192,31)"/>
<path d="M0 0 C22.11 0 44.22 0 67 0 C67 0.33 67 0.66 67 1 C44.89 1 22.78 1 0 1 C0 0.67 0 0.34 0 0 Z " fill="#000000" transform="translate(441,31)"/>
<path d="M0 0 C22.11 0 44.22 0 67 0 C67 0.33 67 0.66 67 1 C44.89 1 22.78 1 0 1 C0 0.67 0 0.34 0 0 Z " fill="#000000" transform="translate(310,31)"/>
<path d="M0 0 C21.12 0 42.24 0 64 0 C64 0.33 64 0.66 64 1 C42.88 1 21.76 1 0 1 C0 0.67 0 0.34 0 0 Z " fill="#000000" transform="translate(980,31)"/>
<path d="M0 0 C0.33 0 0.66 0 1 0 C1 17.82 1 35.64 1 54 C0.67 54 0.34 54 0 54 C0 36.18 0 18.36 0 0 Z " fill="#000000" transform="translate(1059,46)"/>
<path d="M0 0 C17.16 0 34.32 0 52 0 C52 0.33 52 0.66 52 1 C34.84 1 17.68 1 0 1 C0 0.67 0 0.34 0 0 Z " fill="#000000" transform="translate(185,31)"/>
<path d="M0 0 C16.83 0 33.66 0 51 0 C51 0.33 51 0.66 51 1 C34.17 1 17.34 1 0 1 C0 0.67 0 0.34 0 0 Z " fill="#000000" transform="translate(715,31)"/>
<path d="M0 0 C0.66 0.99 1.32 1.98 2 3 C-9.88 3 -21.76 3 -34 3 C-34 2.67 -34 2.34 -34 2 C-22.78 2 -11.56 2 0 2 C0 1.34 0 0.68 0 0 Z " fill="#000000" transform="translate(1378,78)"/>
<path d="M0 0 C0.33 0 0.66 0 1 0 C1 9.24 1 18.48 1 28 C0.67 28 0.34 28 0 28 C0 18.76 0 9.52 0 0 Z " fill="#000000" transform="translate(456,84)"/>
<path d="M0 0 C0.33 0 0.66 0 1 0 C1 9.24 1 18.48 1 28 C0.67 28 0.34 28 0 28 C0 18.76 0 9.52 0 0 Z " fill="#000000" transform="translate(325,84)"/>
<path d="M0 0 C0.33 0 0.66 0 1 0 C1 7.59 1 15.18 1 23 C0.67 23 0.34 23 0 23 C0 15.41 0 7.82 0 0 Z " fill="#000000" transform="translate(699,44)"/>
<path d="M0 0 C0.33 0 0.66 0 1 0 C1 6.6 1 13.2 1 20 C0.67 20 0.34 20 0 20 C0 13.4 0 6.8 0 0 Z " fill="#000000" transform="translate(504,48)"/>
<path d="M0 0 C6.27 0 12.54 0 19 0 C19 0.33 19 0.66 19 1 C12.73 1 6.46 1 0 1 C0 0.67 0 0.34 0 0 Z " fill="#000000" transform="translate(828,31)"/>
<path d="M0 0 C0.33 0 0.66 0 1 0 C1 5.94 1 11.88 1 18 C0.67 18 0.34 18 0 18 C0 12.06 0 6.12 0 0 Z " fill="#000000" transform="translate(783,80)"/>
<path d="M0 0 C5.28 0 10.56 0 16 0 C16 0.33 16 0.66 16 1 C10.72 1 5.44 1 0 1 C0 0.67 0 0.34 0 0 Z " fill="#000000" transform="translate(900,31)"/>
<path d="M0 0 C4.62 0 9.24 0 14 0 C14 0.33 14 0.66 14 1 C9.38 1 4.76 1 0 1 C0 0.67 0 0.34 0 0 Z " fill="#000000" transform="translate(1355,31)"/>
<path d="M0 0 C0.33 0 0.66 0 1 0 C1 3.96 1 7.92 1 12 C0.67 12 0.34 12 0 12 C0 8.04 0 4.08 0 0 Z " fill="#000000" transform="translate(1274,86)"/>
<path d="M0 0 C0.33 0 0.66 0 1 0 C1 3.96 1 7.92 1 12 C0.67 12 0.34 12 0 12 C0 8.04 0 4.08 0 0 Z " fill="#000000" transform="translate(1256,49)"/>
<path d="M0 0 C0.33 0 0.66 0 1 0 C1 3.63 1 7.26 1 11 C0.67 11 0.34 11 0 11 C0 7.37 0 3.74 0 0 Z " fill="#000000" transform="translate(654,101)"/>
<path d="M0 0 C0.33 0 0.66 0 1 0 C1 3.63 1 7.26 1 11 C0.67 11 0.34 11 0 11 C0 7.37 0 3.74 0 0 Z " fill="#000000" transform="translate(123,101)"/>
<path d="M0 0 C0.33 0 0.66 0 1 0 C1 3.63 1 7.26 1 11 C0.67 11 0.34 11 0 11 C0 7.37 0 3.74 0 0 Z " fill="#000000" transform="translate(696,91)"/>
<path d="M0 0 C0.33 0 0.66 0 1 0 C1 3.63 1 7.26 1 11 C0.67 11 0.34 11 0 11 C0 7.37 0 3.74 0 0 Z " fill="#000000" transform="translate(653,33)"/>
<path d="M0 0 C0.33 0 0.66 0 1 0 C1 3.3 1 6.6 1 10 C0.67 10 0.34 10 0 10 C0 6.7 0 3.4 0 0 Z " fill="#000000" transform="translate(629,66)"/>
<path d="M0 0 C0.33 0 0.66 0 1 0 C1 3.3 1 6.6 1 10 C0.67 10 0.34 10 0 10 C0 6.7 0 3.4 0 0 Z " fill="#000000" transform="translate(123,34)"/>
<path d="M0 0 C0.33 0 0.66 0 1 0 C1 2.31 1 4.62 1 7 C0.67 7 0.34 7 0 7 C0 4.69 0 2.38 0 0 Z " fill="#000000" transform="translate(782,46)"/>
<path d="M0 0 C0.33 0 0.66 0 1 0 C1 2.31 1 4.62 1 7 C0.67 7 0.34 7 0 7 C0 4.69 0 2.38 0 0 Z " fill="#000000" transform="translate(252,46)"/>
<path d="M0 0 C0.33 0 0.66 0 1 0 C1 1.65 1 3.3 1 5 C0.67 5 0.34 5 0 5 C0 3.35 0 1.7 0 0 Z " fill="#000000" transform="translate(782,98)"/>
<path d="M0 0 C0.33 0 0.66 0 1 0 C1 1.65 1 3.3 1 5 C0.67 5 0.34 5 0 5 C0 3.35 0 1.7 0 0 Z " fill="#000000" transform="translate(782,75)"/>
<path d="M0 0 C0 3 0 3 0 3 Z " fill="#000000" transform="translate(838,98)"/>
<path d="M0 0 C0.99 0.495 0.99 0.495 2 1 C1.67 1.66 1.34 2.32 1 3 C0.67 2.01 0.34 1.02 0 0 Z " fill="#000000" transform="translate(888,96)"/>
<path d="M0 0 C4 1 4 1 4 1 Z " fill="#000000" transform="translate(171,88)"/>
<path d="M0 0 C4 1 4 1 4 1 Z " fill="#000000" transform="translate(705,87)"/>
<path d="M0 0 C0 3 0 3 0 3 Z " fill="#000000" transform="translate(854,81)"/>
<path d="M0 0 C1 4 1 4 1 4 Z " fill="#000000" transform="translate(781,42)"/>
<path d="M0 0 C1 4 1 4 1 4 Z " fill="#000000" transform="translate(251,42)"/>
<path d="M0 0 C0.99 0.495 0.99 0.495 2 1 C1.67 1.66 1.34 2.32 1 3 C0.67 2.01 0.34 1.02 0 0 Z " fill="#000000" transform="translate(850,34)"/>
<path d="M0 0 C4 1 4 1 4 1 Z " fill="#000000" transform="translate(1044,32)"/>
<path d="" fill="#000000" transform="translate(0,0)"/>
<path d="" fill="#000000" transform="translate(0,0)"/>
<path d="" fill="#000000" transform="translate(0,0)"/>
<path d="" fill="#000000" transform="translate(0,0)"/>
<path d="" fill="#000000" transform="translate(0,0)"/>
<path d="M0 0 C0.33 0.66 0.66 1.32 1 2 C0.34 1.67 -0.32 1.34 -1 1 C-0.67 0.67 -0.34 0.34 0 0 Z " fill="#000000" transform="translate(1520,67)"/>
<path d="" fill="#000000" transform="translate(0,0)"/>
<path d="" fill="#000000" transform="translate(0,0)"/>
<path d="" fill="#000000" transform="translate(0,0)"/>
<path d="" fill="#000000" transform="translate(0,0)"/>
<path d="" fill="#000000" transform="translate(0,0)"/>
<path d="" fill="#000000" transform="translate(0,0)"/>
<path d="" fill="#000000" transform="translate(0,0)"/>
<path d="" fill="#000000" transform="translate(0,0)"/>
<path d="" fill="#000000" transform="translate(0,0)"/>
<path d="" fill="#000000" transform="translate(0,0)"/>
<path d="" fill="#000000" transform="translate(0,0)"/>
<path d="" fill="#000000" transform="translate(0,0)"/>
<path d="" fill="#000000" transform="translate(0,0)"/>
<path d="" fill="#000000" transform="translate(0,0)"/>
<path d="" fill="#000000" transform="translate(0,0)"/>
<path d="" fill="#000000" transform="translate(0,0)"/>
<path d="" fill="#000000" transform="translate(0,0)"/>
<path d="" fill="#000000" transform="translate(0,0)"/>
<path d="" fill="#000000" transform="translate(0,0)"/>
<path d="" fill="#000000" transform="translate(0,0)"/>
<path d="" fill="#000000" transform="translate(0,0)"/>
<path d="M0 0 C2 1 2 1 2 1 Z " fill="#000000" transform="translate(709,86)"/>
<path d="" fill="#000000" transform="translate(0,0)"/>
<path d="" fill="#000000" transform="translate(0,0)"/>
<path d="" fill="#000000" transform="translate(0,0)"/>
<path d="" fill="#000000" transform="translate(0,0)"/>
<path d="" fill="#000000" transform="translate(0,0)"/>
<path d="" fill="#000000" transform="translate(0,0)"/>
<path d="" fill="#000000" transform="translate(0,0)"/>
<path d="" fill="#000000" transform="translate(0,0)"/>
<path d="M0 0 C2 1 2 1 2 1 Z " fill="#000000" transform="translate(1266,72)"/>
<path d="" fill="#000000" transform="translate(0,0)"/>
<path d="" fill="#000000" transform="translate(0,0)"/>
<path d="M0 0 C2 1 2 1 2 1 Z " fill="#000000" transform="translate(371,68)"/>
<path d="" fill="#000000" transform="translate(0,0)"/>
<path d="" fill="#000000" transform="translate(0,0)"/>
<path d="M0 0 C2 1 2 1 2 1 Z " fill="#000000" transform="translate(244,66)"/>
<path d="" fill="#000000" transform="translate(0,0)"/>
<path d="" fill="#000000" transform="translate(0,0)"/>
<path d="" fill="#000000" transform="translate(0,0)"/>
<path d="" fill="#000000" transform="translate(0,0)"/>
<path d="" fill="#000000" transform="translate(0,0)"/>
<path d="" fill="#000000" transform="translate(0,0)"/>
<path d="" fill="#000000" transform="translate(0,0)"/>
<path d="" fill="#000000" transform="translate(0,0)"/>
<path d="" fill="#000000" transform="translate(0,0)"/>
<path d="" fill="#000000" transform="translate(0,0)"/>
<path d="" fill="#000000" transform="translate(0,0)"/>
<path d="" fill="#000000" transform="translate(0,0)"/>
<path d="" fill="#000000" transform="translate(0,0)"/>
<path d="" fill="#000000" transform="translate(0,0)"/>
<path d="" fill="#000000" transform="translate(0,0)"/>
<path d="" fill="#000000" transform="translate(0,0)"/>
<path d="" fill="#000000" transform="translate(0,0)"/>
<path d="" fill="#000000" transform="translate(0,0)"/>
<path d="" fill="#000000" transform="translate(0,0)"/>
<path d="" fill="#000000" transform="translate(0,0)"/>
<path d="" fill="#000000" transform="translate(0,0)"/>
<path d="" fill="#000000" transform="translate(0,0)"/>
<path d="M0 0 C2 1 2 1 2 1 Z " fill="#000000" transform="translate(1051,34)"/>
<path d="" fill="#000000" transform="translate(0,0)"/>
<path d="" fill="#000000" transform="translate(0,0)"/>
<path d="M0 0 C2 1 2 1 2 1 Z " fill="#000000" transform="translate(244,34)"/>
<path d="M0 0 C2 1 2 1 2 1 Z " fill="#000000" transform="translate(176,34)"/>
<path d="M0 0 C2 1 2 1 2 1 Z " fill="#000000" transform="translate(1264,33)"/>
<path d="M0 0 C2 1 2 1 2 1 Z " fill="#000000" transform="translate(708,33)"/>
<path d="M0 0 C2 1 2 1 2 1 Z " fill="#000000" transform="translate(513,33)"/>
<path d="M0 0 C2 1 2 1 2 1 Z " fill="#000000" transform="translate(382,33)"/>
<path d="M0 0 C2 1 2 1 2 1 Z " fill="#000000" transform="translate(242,33)"/>
<path d="M0 0 C2 1 2 1 2 1 Z " fill="#000000" transform="translate(178,33)"/>
<path d="" fill="#000000" transform="translate(0,0)"/>
<path d="" fill="#000000" transform="translate(0,0)"/>
<path d="" fill="#000000" transform="translate(0,0)"/>
<path d="" fill="#000000" transform="translate(0,0)"/>
<path d="" fill="#000000" transform="translate(0,0)"/>
<path d="" fill="#000000" transform="translate(0,0)"/>
<path d="" fill="#000000" transform="translate(0,0)"/>
<path d="" fill="#000000" transform="translate(0,0)"/>
<path d="" fill="#000000" transform="translate(0,0)"/>
<path d="" fill="#000000" transform="translate(0,0)"/>
<path d="" fill="#000000" transform="translate(0,0)"/>
<path d="" fill="#000000" transform="translate(0,0)"/>
<path d="" fill="#000000" transform="translate(0,0)"/>
<path d="" fill="#000000" transform="translate(0,0)"/>
<path d="" fill="#000000" transform="translate(0,0)"/>
<path d="" fill="#000000" transform="translate(0,0)"/>
<path d="" fill="#000000" transform="translate(0,0)"/>
<path d="" fill="#000000" transform="translate(0,0)"/>
<path d="" fill="#000000" transform="translate(0,0)"/>
<path d="" fill="#000000" transform="translate(0,0)"/>
<path d="" fill="#000000" transform="translate(0,0)"/>
<path d="" fill="#000000" transform="translate(0,0)"/>
<path d="" fill="#000000" transform="translate(0,0)"/>
<path d="" fill="#000000" transform="translate(0,0)"/>
<path d="" fill="#000000" transform="translate(0,0)"/>
<path d="" fill="#000000" transform="translate(0,0)"/>
<path d="" fill="#000000" transform="translate(0,0)"/>
<path d="" fill="#000000" transform="translate(0,0)"/>
<path d="" fill="#000000" transform="translate(0,0)"/>
<path d="" fill="#000000" transform="translate(0,0)"/>
<path d="" fill="#000000" transform="translate(0,0)"/>
<path d="" fill="#000000" transform="translate(0,0)"/>
<path d="" fill="#000000" transform="translate(0,0)"/>
<path d="" fill="#000000" transform="translate(0,0)"/>
<path d="" fill="#000000" transform="translate(0,0)"/>
<path d="" fill="#000000" transform="translate(0,0)"/>
<path d="" fill="#000000" transform="translate(0,0)"/>
<path d="" fill="#000000" transform="translate(0,0)"/>
<path d="" fill="#000000" transform="translate(0,0)"/>
<path d="" fill="#000000" transform="translate(0,0)"/>
<path d="" fill="#000000" transform="translate(0,0)"/>
<path d="" fill="#000000" transform="translate(0,0)"/>
<path d="" fill="#000000" transform="translate(0,0)"/>
<path d="" fill="#000000" transform="translate(0,0)"/>
<path d="" fill="#000000" transform="translate(0,0)"/>
<path d="" fill="#000000" transform="translate(0,0)"/>
<path d="" fill="#000000" transform="translate(0,0)"/>
<path d="" fill="#000000" transform="translate(0,0)"/>
<path d="" fill="#000000" transform="translate(0,0)"/>
<path d="" fill="#000000" transform="translate(0,0)"/>
<path d="" fill="#000000" transform="translate(0,0)"/>
<path d="" fill="#000000" transform="translate(0,0)"/>
<path d="" fill="#000000" transform="translate(0,0)"/>
<path d="" fill="#000000" transform="translate(0,0)"/>
<path d="" fill="#000000" transform="translate(0,0)"/>
<path d="" fill="#000000" transform="translate(0,0)"/>
<path d="" fill="#000000" transform="translate(0,0)"/>
<path d="" fill="#000000" transform="translate(0,0)"/>
<path d="" fill="#000000" transform="translate(0,0)"/>
<path d="" fill="#000000" transform="translate(0,0)"/>
<path d="" fill="#000000" transform="translate(0,0)"/>
<path d="" fill="#000000" transform="translate(0,0)"/>
<path d="" fill="#000000" transform="translate(0,0)"/>
<path d="" fill="#000000" transform="translate(0,0)"/>
<path d="" fill="#000000" transform="translate(0,0)"/>
<path d="" fill="#000000" transform="translate(0,0)"/>
<path d="" fill="#000000" transform="translate(0,0)"/>
<path d="" fill="#000000" transform="translate(0,0)"/>
<path d="" fill="#000000" transform="translate(0,0)"/>
<path d="" fill="#000000" transform="translate(0,0)"/>
<path d="" fill="#000000" transform="translate(0,0)"/>
<path d="" fill="#000000" transform="translate(0,0)"/>
<path d="" fill="#000000" transform="translate(0,0)"/>
<path d="" fill="#000000" transform="translate(0,0)"/>
<path d="" fill="#000000" transform="translate(0,0)"/>
<path d="" fill="#000000" transform="translate(0,0)"/>
<path d="" fill="#000000" transform="translate(0,0)"/>
<path d="" fill="#000000" transform="translate(0,0)"/>
<path d="" fill="#000000" transform="translate(0,0)"/>
<path d="" fill="#000000" transform="translate(0,0)"/>
<path d="" fill="#000000" transform="translate(0,0)"/>
<path d="" fill="#000000" transform="translate(0,0)"/>
<path d="" fill="#000000" transform="translate(0,0)"/>
<path d="" fill="#000000" transform="translate(0,0)"/>
<path d="" fill="#000000" transform="translate(0,0)"/>
<path d="" fill="#000000" transform="translate(0,0)"/>
<path d="" fill="#000000" transform="translate(0,0)"/>
<path d="" fill="#000000" transform="translate(0,0)"/>
<path d="" fill="#000000" transform="translate(0,0)"/>
<path d="" fill="#000000" transform="translate(0,0)"/>
<path d="" fill="#000000" transform="translate(0,0)"/>
<path d="" fill="#000000" transform="translate(0,0)"/>
<path d="" fill="#000000" transform="translate(0,0)"/>
<path d="" fill="#000000" transform="translate(0,0)"/>
<path d="" fill="#000000" transform="translate(0,0)"/>
<path d="" fill="#000000" transform="translate(0,0)"/>
<path d="" fill="#000000" transform="translate(0,0)"/>
<path d="" fill="#000000" transform="translate(0,0)"/>
<path d="" fill="#000000" transform="translate(0,0)"/>
<path d="" fill="#000000" transform="translate(0,0)"/>
<path d="" fill="#000000" transform="translate(0,0)"/>
<path d="" fill="#000000" transform="translate(0,0)"/>
<path d="" fill="#000000" transform="translate(0,0)"/>
<path d="" fill="#000000" transform="translate(0,0)"/>
<path d="" fill="#000000" transform="translate(0,0)"/>
<path d="" fill="#000000" transform="translate(0,0)"/>
<path d="" fill="#000000" transform="translate(0,0)"/>
<path d="" fill="#000000" transform="translate(0,0)"/>
<path d="" fill="#000000" transform="translate(0,0)"/>
<path d="" fill="#000000" transform="translate(0,0)"/>
<path d="" fill="#000000" transform="translate(0,0)"/>
<path d="" fill="#000000" transform="translate(0,0)"/>
<path d="" fill="#000000" transform="translate(0,0)"/>
<path d="" fill="#000000" transform="translate(0,0)"/>
<path d="" fill="#000000" transform="translate(0,0)"/>
<path d="" fill="#000000" transform="translate(0,0)"/>
<path d="" fill="#000000" transform="translate(0,0)"/>
<path d="" fill="#000000" transform="translate(0,0)"/>
<path d="" fill="#000000" transform="translate(0,0)"/>
<path d="" fill="#000000" transform="translate(0,0)"/>
<path d="" fill="#000000" transform="translate(0,0)"/>
<path d="" fill="#000000" transform="translate(0,0)"/>
<path d="" fill="#000000" transform="translate(0,0)"/>
<path d="" fill="#000000" transform="translate(0,0)"/>
<path d="" fill="#000000" transform="translate(0,0)"/>
<path d="" fill="#000000" transform="translate(0,0)"/>
<path d="" fill="#000000" transform="translate(0,0)"/>
<path d="" fill="#000000" transform="translate(0,0)"/>
<path d="" fill="#000000" transform="translate(0,0)"/>
<path d="" fill="#000000" transform="translate(0,0)"/>
<path d="" fill="#000000" transform="translate(0,0)"/>
<path d="" fill="#000000" transform="translate(0,0)"/>
<path d="" fill="#000000" transform="translate(0,0)"/>
<path d="" fill="#000000" transform="translate(0,0)"/>
<path d="" fill="#000000" transform="translate(0,0)"/>
<path d="" fill="#000000" transform="translate(0,0)"/>
<path d="" fill="#000000" transform="translate(0,0)"/>
<path d="" fill="#000000" transform="translate(0,0)"/>
<path d="" fill="#000000" transform="translate(0,0)"/>
<path d="" fill="#000000" transform="translate(0,0)"/>
<path d="" fill="#000000" transform="translate(0,0)"/>
<path d="" fill="#000000" transform="translate(0,0)"/>
<path d="" fill="#000000" transform="translate(0,0)"/>
<path d="" fill="#000000" transform="translate(0,0)"/>
<path d="" fill="#000000" transform="translate(0,0)"/>
<path d="" fill="#000000" transform="translate(0,0)"/>
<path d="" fill="#000000" transform="translate(0,0)"/>
<path d="" fill="#000000" transform="translate(0,0)"/>
<path d="" fill="#000000" transform="translate(0,0)"/>
<path d="" fill="#000000" transform="translate(0,0)"/>
<path d="" fill="#000000" transform="translate(0,0)"/>
<path d="" fill="#000000" transform="translate(0,0)"/>
<path d="" fill="#000000" transform="translate(0,0)"/>
<path d="" fill="#000000" transform="translate(0,0)"/>
<path d="" fill="#000000" transform="translate(0,0)"/>
<path d="" fill="#000000" transform="translate(0,0)"/>
<path d="" fill="#000000" transform="translate(0,0)"/>
<path d="" fill="#000000" transform="translate(0,0)"/>
<path d="" fill="#000000" transform="translate(0,0)"/>
<path d="" fill="#000000" transform="translate(0,0)"/>
<path d="" fill="#000000" transform="translate(0,0)"/>
<path d="" fill="#000000" transform="translate(0,0)"/>
<path d="" fill="#000000" transform="translate(0,0)"/>
<path d="" fill="#000000" transform="translate(0,0)"/>
<path d="" fill="#000000" transform="translate(0,0)"/>
<path d="" fill="#000000" transform="translate(0,0)"/>
<path d="" fill="#000000" transform="translate(0,0)"/>
<path d="" fill="#000000" transform="translate(0,0)"/>
<path d="" fill="#000000" transform="translate(0,0)"/>
<path d="" fill="#000000" transform="translate(0,0)"/>
<path d="" fill="#000000" transform="translate(0,0)"/>
<path d="" fill="#000000" transform="translate(0,0)"/>
<path d="" fill="#000000" transform="translate(0,0)"/>
<path d="" fill="#000000" transform="translate(0,0)"/>
<path d="" fill="#000000" transform="translate(0,0)"/>
<path d="" fill="#000000" transform="translate(0,0)"/>
<path d="" fill="#000000" transform="translate(0,0)"/>
<path d="" fill="#000000" transform="translate(0,0)"/>
<path d="" fill="#000000" transform="translate(0,0)"/>
<path d="" fill="#000000" transform="translate(0,0)"/>
<path d="" fill="#000000" transform="translate(0,0)"/>
<path d="" fill="#000000" transform="translate(0,0)"/>
<path d="" fill="#000000" transform="translate(0,0)"/>
<path d="" fill="#000000" transform="translate(0,0)"/>
<path d="" fill="#000000" transform="translate(0,0)"/>
<path d="" fill="#000000" transform="translate(0,0)"/>
<path d="" fill="#000000" transform="translate(0,0)"/>
<path d="" fill="#000000" transform="translate(0,0)"/>
<path d="" fill="#000000" transform="translate(0,0)"/>
<path d="" fill="#000000" transform="translate(0,0)"/>
<path d="" fill="#000000" transform="translate(0,0)"/>
<path d="" fill="#000000" transform="translate(0,0)"/>
<path d="" fill="#000000" transform="translate(0,0)"/>
<path d="" fill="#000000" transform="translate(0,0)"/>
<path d="" fill="#000000" transform="translate(0,0)"/>
<path d="" fill="#000000" transform="translate(0,0)"/>
<path d="" fill="#000000" transform="translate(0,0)"/>
<path d="" fill="#000000" transform="translate(0,0)"/>
<path d="" fill="#000000" transform="translate(0,0)"/>
<path d="" fill="#000000" transform="translate(0,0)"/>
<path d="" fill="#000000" transform="translate(0,0)"/>
<path d="" fill="#000000" transform="translate(0,0)"/>
<path d="" fill="#000000" transform="translate(0,0)"/>
<path d="" fill="#000000" transform="translate(0,0)"/>
<path d="" fill="#000000" transform="translate(0,0)"/>
<path d="" fill="#000000" transform="translate(0,0)"/>
<path d="" fill="#000000" transform="translate(0,0)"/>
<path d="" fill="#000000" transform="translate(0,0)"/>
<path d="" fill="#000000" transform="translate(0,0)"/>
<path d="" fill="#000000" transform="translate(0,0)"/>
<path d="" fill="#000000" transform="translate(0,0)"/>
<path d="" fill="#000000" transform="translate(0,0)"/>
<path d="" fill="#000000" transform="translate(0,0)"/>
<path d="" fill="#000000" transform="translate(0,0)"/>
<path d="" fill="#000000" transform="translate(0,0)"/>
<path d="" fill="#000000" transform="translate(0,0)"/>
<path d="" fill="#000000" transform="translate(0,0)"/>
<path d="" fill="#000000" transform="translate(0,0)"/>
<path d="" fill="#000000" transform="translate(0,0)"/>
<path d="" fill="#000000" transform="translate(0,0)"/>
<path d="" fill="#000000" transform="translate(0,0)"/>
<path d="" fill="#000000" transform="translate(0,0)"/>
<path d="" fill="#000000" transform="translate(0,0)"/>
<path d="" fill="#000000" transform="translate(0,0)"/>
<path d="" fill="#000000" transform="translate(0,0)"/>
<path d="" fill="#000000" transform="translate(0,0)"/>
<path d="" fill="#000000" transform="translate(0,0)"/>
<path d="" fill="#000000" transform="translate(0,0)"/>
<path d="" fill="#000000" transform="translate(0,0)"/>
<path d="" fill="#000000" transform="translate(0,0)"/>
<path d="" fill="#000000" transform="translate(0,0)"/>
<path d="" fill="#000000" transform="translate(0,0)"/>
<path d="" fill="#000000" transform="translate(0,0)"/>
<path d="" fill="#000000" transform="translate(0,0)"/>
<path d="" fill="#000000" transform="translate(0,0)"/>
<path d="" fill="#000000" transform="translate(0,0)"/>
<path d="" fill="#000000" transform="translate(0,0)"/>
<path d="" fill="#000000" transform="translate(0,0)"/>
<path d="" fill="#000000" transform="translate(0,0)"/>
<path d="" fill="#000000" transform="translate(0,0)"/>
<path d="" fill="#000000" transform="translate(0,0)"/>
<path d="" fill="#000000" transform="translate(0,0)"/>
<path d="" fill="#000000" transform="translate(0,0)"/>
<path d="" fill="#000000" transform="translate(0,0)"/>
<path d="" fill="#000000" transform="translate(0,0)"/>
<path d="" fill="#000000" transform="translate(0,0)"/>
<path d="" fill="#000000" transform="translate(0,0)"/>
<path d="" fill="#000000" transform="translate(0,0)"/>
<path d="" fill="#000000" transform="translate(0,0)"/>
<path d="" fill="#000000" transform="translate(0,0)"/>
<path d="" fill="#000000" transform="translate(0,0)"/>
<path d="" fill="#000000" transform="translate(0,0)"/>
<path d="" fill="#000000" transform="translate(0,0)"/>
<path d="" fill="#000000" transform="translate(0,0)"/>
<path d="" fill="#000000" transform="translate(0,0)"/>
<path d="" fill="#000000" transform="translate(0,0)"/>
<path d="" fill="#000000" transform="translate(0,0)"/>
<path d="" fill="#000000" transform="translate(0,0)"/>
<path d="" fill="#000000" transform="translate(0,0)"/>
<path d="" fill="#000000" transform="translate(0,0)"/>
<path d="" fill="#000000" transform="translate(0,0)"/>
<path d="" fill="#000000" transform="translate(0,0)"/>
<path d="" fill="#000000" transform="translate(0,0)"/>
<path d="" fill="#000000" transform="translate(0,0)"/>
<path d="" fill="#000000" transform="translate(0,0)"/>
<path d="" fill="#000000" transform="translate(0,0)"/>
<path d="" fill="#000000" transform="translate(0,0)"/>
<path d="" fill="#000000" transform="translate(0,0)"/>
<path d="" fill="#000000" transform="translate(0,0)"/>
<path d="" fill="#000000" transform="translate(0,0)"/>
<path d="" fill="#000000" transform="translate(0,0)"/>
<path d="" fill="#000000" transform="translate(0,0)"/>
<path d="" fill="#000000" transform="translate(0,0)"/>
<path d="" fill="#000000" transform="translate(0,0)"/>
<path d="" fill="#000000" transform="translate(0,0)"/>
<path d="" fill="#000000" transform="translate(0,0)"/>
<path d="" fill="#000000" transform="translate(0,0)"/>
<path d="" fill="#000000" transform="translate(0,0)"/>
<path d="" fill="#000000" transform="translate(0,0)"/>
<path d="" fill="#000000" transform="translate(0,0)"/>
<path d="" fill="#000000" transform="translate(0,0)"/>
<path d="" fill="#000000" transform="translate(0,0)"/>
<path d="" fill="#000000" transform="translate(0,0)"/>
<path d="" fill="#000000" transform="translate(0,0)"/>
<path d="" fill="#000000" transform="translate(0,0)"/>
<path d="" fill="#000000" transform="translate(0,0)"/>
<path d="" fill="#000000" transform="translate(0,0)"/>
<path d="" fill="#000000" transform="translate(0,0)"/>
<path d="" fill="#000000" transform="translate(0,0)"/>
<path d="" fill="#000000" transform="translate(0,0)"/>
<path d="" fill="#000000" transform="translate(0,0)"/>
<path d="" fill="#000000" transform="translate(0,0)"/>
<path d="" fill="#000000" transform="translate(0,0)"/>
<path d="" fill="#000000" transform="translate(0,0)"/>
<path d="" fill="#000000" transform="translate(0,0)"/>
<path d="" fill="#000000" transform="translate(0,0)"/>
<path d="" fill="#000000" transform="translate(0,0)"/>
<path d="" fill="#000000" transform="translate(0,0)"/>
<path d="" fill="#000000" transform="translate(0,0)"/>
<path d="" fill="#000000" transform="translate(0,0)"/>
<path d="" fill="#000000" transform="translate(0,0)"/>
<path d="" fill="#000000" transform="translate(0,0)"/>
<path d="" fill="#000000" transform="translate(0,0)"/>
<path d="" fill="#000000" transform="translate(0,0)"/>
<path d="" fill="#000000" transform="translate(0,0)"/>
<path d="" fill="#000000" transform="translate(0,0)"/>
<path d="" fill="#000000" transform="translate(0,0)"/>
<path d="" fill="#000000" transform="translate(0,0)"/>
<path d="" fill="#000000" transform="translate(0,0)"/>
<path d="" fill="#000000" transform="translate(0,0)"/>
<path d="" fill="#000000" transform="translate(0,0)"/>
<path d="" fill="#000000" transform="translate(0,0)"/>
<path d="" fill="#000000" transform="translate(0,0)"/>
<path d="" fill="#000000" transform="translate(0,0)"/>
<path d="" fill="#000000" transform="translate(0,0)"/>
<path d="" fill="#000000" transform="translate(0,0)"/>
<path d="" fill="#000000" transform="translate(0,0)"/>
<path d="" fill="#000000" transform="translate(0,0)"/>
<path d="" fill="#000000" transform="translate(0,0)"/>
<path d="" fill="#000000" transform="translate(0,0)"/>
</svg>
